<?xml version="1.0"?>
<svg xmlns="http://www.w3.org/2000/svg" xmlns:xlink="http://www.w3.org/1999/xlink" version="1.1" id="Capa_1" x="0px" y="0px" viewBox="0 0 512 512" style="enable-background:new 0 0 512 512;" xml:space="preserve" width="512px" height="512px"><g><g>
	<g>
		<g>
			<path d="M32,464V48c0-8.837,7.163-16,16-16h240v64c0,17.673,14.327,32,32,32h64v48h32v-64c0.025-4.253-1.645-8.341-4.64-11.36     l-96-96C312.341,1.645,308.253-0.024,304,0H48C21.49,0,0,21.491,0,48v416c0,26.51,21.49,48,48,48h112v-32H48     C39.164,480,32,472.837,32,464z" data-original="#000000" class="active-path" data-old_color="#000000" fill="#4F4F4F"/>
			<path d="M321.76,264.8L304,300.16l-17.76-35.36c-2.711-5.38-8.215-8.782-14.24-8.8h-32v32h22.08l24,48l-24,48H240v32h32     c6.025-0.018,11.529-3.42,14.24-8.8L304,371.84l17.76,35.36c2.711,5.38,8.215,8.782,14.24,8.8h32v-32h-22.08l-24-48l24-48H368     v-32h-32C329.975,256.019,324.471,259.42,321.76,264.8z" data-original="#000000" class="active-path" data-old_color="#000000" fill="#4F4F4F"/>
			<polygon points="96,288 144,288 144,416 176,416 176,288 224,288 224,256 96,256    " data-original="#000000" class="active-path" data-old_color="#000000" fill="#4F4F4F"/>
			<polygon points="384,256 384,288 432,288 432,416 464,416 464,288 512,288 512,256    " data-original="#000000" class="active-path" data-old_color="#000000" fill="#4F4F4F"/>
		</g>
	</g>
</g></g> </svg>
